<?xml version="1.0" encoding="UTF-8" standalone="no"?>
<!-- Created with Inkscape (http://www.inkscape.org/) -->
<svg id="svg2810" xmlns:rdf="http://www.w3.org/1999/02/22-rdf-syntax-ns#" xmlns="http://www.w3.org/2000/svg" xml:space="preserve" height="18" width="18" version="1.0" xmlns:cc="http://web.resource.org/cc/" xmlns:xlink="http://www.w3.org/1999/xlink" viewBox="0 0 480 480" xmlns:dc="http://purl.org/dc/elements/1.1/"><metadata id="metadata2348"><rdf:RDF><cc:Work rdf:about=""><dc:format>image/svg+xml</dc:format><dc:type rdf:resource="http://purl.org/dc/dcmitype/StillImage"/></cc:Work></rdf:RDF></metadata><defs id="defs2836"><linearGradient id="linearGradient3850"><stop id="stop3852" stop-color="#fff" stop-opacity=".79381" offset="0"/><stop id="stop4351" stop-color="#fff" stop-opacity="0" offset=".83784"/><stop id="stop3854" stop-color="#fff" stop-opacity="0" offset="1"/></linearGradient>
		<radialGradient id="radialGradient2351" gradientUnits="userSpaceOnUse" cy="240" cx="240" r="225"><stop id="stop6898" stop-color="#0083ff" stop-opacity="0" offset="0"/><stop id="stop6900" stop-color="#0054ff" stop-opacity=".41237" offset="1"/></radialGradient>
		<linearGradient id="linearGradient2356" y2="311.83" gradientUnits="userSpaceOnUse" x2="452.6" y1="311.83" x1="27.401"><stop id="stop5816" stop-color="#0048cd" offset="0"/><stop id="stop5818" stop-color="#002aa0" offset="1"/></linearGradient><linearGradient id="linearGradient2359" y2="152.75" gradientUnits="userSpaceOnUse" x2="441.12" y1="152.75" x1="38.881"><stop id="stop5824" stop-color="#5e99dd" offset="0"/><stop id="stop5826" stop-color="#0461c9" offset="1"/></linearGradient>
		<radialGradient id="radialGradient2376" xlink:href="#linearGradient3850" gradientUnits="userSpaceOnUse" cy="167.5" cx="196.07" gradientTransform="matrix(-.56790 -1.4348 1.4011 -.55456 -81.877 420.14)" r="240"/><radialGradient id="radialGradient2379" xlink:href="#linearGradient3850" gradientUnits="userSpaceOnUse" cy="240" cx="240" r="240"/></defs>
		<path id="path2818" fill="#003fc0" d="m240 0c-132.34 0-240 107.66-240 240s107.66 240 240 240 240-107.66 240-240-107.66-240-240-240z"/><path id="path2820" fill="#649efa" d="m465 240c0 124.07-100.93 225-225 225s-225-100.93-225-225 100.93-225 225-225 225 100.93 225 225z"/>
	<path id="path2826" d="m240 278.09c78.17 0 145.31-44.43 201.12-107.03-28.7-83.491-108.01-143.66-201.12-143.66-93.11 0.001-172.42 60.169-201.12 143.66 55.81 62.6 122.95 107.03 201.12 107.03z" fill="url(#linearGradient2359)"/><path id="path2828" d="m240 278.09c-78.17 0-145.31-44.43-201.12-107.03-7.433 21.63-11.479 44.82-11.479 68.94 0 117.23 95.369 212.6 212.6 212.6s212.6-95.37 212.6-212.6c0-24.12-4.05-47.31-11.48-68.94-55.81 62.6-122.95 107.03-201.12 107.03z" fill="url(#linearGradient2356)"/><g id="layer4"><path id="path3848" d="m465 240c0 124.07-100.93 225-225 225s-225-100.93-225-225 100.93-225 225-225 225 100.93 225 225z" fill-rule="evenodd" fill="url(#radialGradient2376)"/></g><g id="layer3"><path id="path3846" d="m240 0c-132.34 0-240 107.66-240 240s107.66 240 240 240 240-107.66 240-240-107.66-240-240-240z" fill-rule="evenodd" fill="url(#radialGradient2379)"/></g><g id="layer1"><path id="path6894" d="m465 240c0 124.07-100.93 225-225 225s-225-100.93-225-225 100.93-225 225-225 225 100.93 225 225z" fill-rule="evenodd" fill="url(#radialGradient2351)"/></g><g id="layer2"><g id="g2831" stroke="#0064d4">
				<path id="path2833" d="m203.24 253.14c0-30.39-1-30.89-28.9-34.38v-16.94h107.12v157.94c0 28.4 2.49 30.89 28.9 33.88v19.43h-136.02v-19.43c26.41-2.99 28.9-5.48 28.9-33.88v-106.62zm81.21-136.52c0 23.92-18.93 43.35-43.35 43.35-23.41 0-43.34-19.43-43.34-43.35 0-24.408 19.93-43.341 43.34-43.341 24.42 0 43.35 18.933 43.35 43.341z" stroke="#0064d4" stroke-width="5" fill="#fff"/>
			</g></g></svg>
